# xmcd
#
# Track frame offsets:
#	150
#	20564
#	37361
#	51415
#	66157
#	81846
#	104729
#	116526
#	129831
#	139893
#	152564
#	166248
#	176323
#	190003
#
# Disc length: 2794 seconds
#
# Revision: 0
# Processed by: cddbd v1.5.2PL0 Copyright (c) Steve Scherf et al.
# Submitted via: EasyCDDAExtractor 10.0.2.1
#
DISCID=c00ae80e
DTITLE=Various Artist - Gospel Jukebox Vol 22
DYEAR=1900
DGENRE=
TTITLE0=Rachel Williams - When You Found Jesus
TTITLE1=The Morris Brothers - Drifting Too Far From The Shore
TTITLE2=Sharon Holtzclaw - He Don't Call Me Sinner Anymore
TTITLE3=Tony Malone - Mama's Song
TTITLE4=Chuck Day - Reach Down From Heaven
TTITLE5=Brenda Kirkland - Mama Taught Me So Well
TTITLE6=Nathan Dodds - Swing Down Sweet Chariot
TTITLE7=Tompall Glaser and Clint Miller - Glory Train To Heaven
TTITLE8=Paul Southernland - If Life Got Any Better
TTITLE9=Charles Sivley - I'm So Happy
TTITLE10=Charles Sivley - Plastic Stars
TTITLE11=Bobbie Price - Hush
TTITLE12=Curtis Dykes - My Special Friend
TTITLE13=Francesca Riedle - Worth Every Mile Of The Way
EXTD=
EXTT0=
EXTT1=
EXTT2=
EXTT3=
EXTT4=
EXTT5=
EXTT6=
EXTT7=
EXTT8=
EXTT9=
EXTT10=
EXTT11=
EXTT12=
EXTT13=
PLAYORDER=
